<svg xmlns="http://www.w3.org/2000/svg" style="display:block" viewBox="0 0 535 525"><path d="M0 0c3.7 0 6.4.5 9.8 2.2-2.5 4.4-5.5 8-8.7 11.7q-6.3 7-12 14.5l-9.3 11.3q-6.6 7.8-13 15.9L-46.4 72l-8.2 10-5 6-6.4 8-38.7 48.2c-13.5 15.6-13.5 15.6-24.5 32.9l1.8.5 2.4.7 9.3 2.9 3.5 1 3.3 1.1c2.8 1 2.8 1 5.8.8l4.6-6.8c18.9-29.3 18.9-29.3 32.3-34.2a42 42 0 0 1 11.3.4l5.8.6v2l-7 4.6q-22.4 14.7-35 38.4v2l1.9.9a246 246 0 0 1 67.9 45.3q5.6 5 10.8 10.3l1.7 1.7q3.9 3.9 7.4 8.2c2.8 3.2 4.2 3 8.3 3.6 2.4 2 2.4 2 4 5 0 2.8-.5 5.2-1 8q6-4.7 10.8-10.6a279 279 0 0 1 29-29.5l7.6-7.4q5.4-5.5 11.3-10.5l9.3-8.5A473 473 0 0 1 101 187l13-11.2 2-1.7 20.7-18 2.7-2.3c3-2.1 4.6-2.1 8.3-1.6 2.3 1.5 2.3 1.5 4 3-.5 6-2.2 9.5-5.7 14.3l-1.5 2q-9.1 12.7-18.8 24.7l-1.7 2.1-12.7 15.6a318 318 0 0 1-21.7 23.6l-2.8 2.8a207 207 0 0 1-16.7 15l-8 7q-6 5.5-12.5 10.5a820 820 0 0 0-26 21.4c.7 3.7 1.7 6.8 3.3 10.3l1.4 3 1.4 3 1.4 3.1 3.6 7.6c17.8-16.8 17.8-16.8 31.4-37 1.5-2 1.5-2 4.5-2.5l3.2.2 3.3.1 2.5.2c-.4 5-2.2 8.5-5 12.7l-1.2 1.8q-5.9 8.6-12.7 16.5l-2.2 2.5q-4.8 5.5-10.1 10.5l-1.7 1.6-3.3 3c-1.8 1.6-1.8 1.6-3.7 4.4-.1 3.5-.1 3.5 1 7l.8 3.2 1.7 6c.5 3.1.1 4.2-1.5 6.8l2.5-2 1.7-1.4 13.2-10.3a1026 1026 0 0 0 65.4-55.4q4.5-4.5 9.3-8.5 5.9-5.1 11.3-10.9 3.8-3.9 8-7.5 8.3-7.4 16-15.4l28.8-28.7c10-10 10-10 18.8-20.9 4.8-6.5 4.8-6.5 9-7.5a70 70 0 0 1 14 .5l-7 7q-4.8 4.5-9.2 9.6Q212 220.4 199 233q-2.8 2.9-5.4 6a243 243 0 0 1-14.3 15q-6 6-12.5 11.5-4.6 4.1-9 8.7-6.1 6.4-13 12.2l-10 9.3a441 441 0 0 1-20.8 18.9q-6.6 5.9-13.4 11.3-4 3.3-7.7 6.8-7 6.3-14.4 12.1l-8 6.6-16 13.2-2.4 1.8-4.9 3.7c-5.3 4-8.5 7.5-11.6 13.3-10.7 17.4-28 32.3-42.4 46.4q-6.6 6.5-12.6 13.5-5.7 6.1-11.8 11.9-6 6-11.4 12.2l-5 5.3a115 115 0 0 0-6.6 7q-6.2 7.1-12.8 14-4.6 5-9 10a37 37 0 0 1-24.6 13.7c-12.8.7-24.4-.2-36.5-4.2l-2-.6a206 206 0 0 1-64-37.4l-3-2.3a290 290 0 0 1-21.3-19.7l-2.8-2.8a226 226 0 0 1-19.9-22.8c-20.2-25.1-43.1-60-40-93.4 3-13.8 13.6-23.1 23-33l1.9-2 8.2-8.8q8.5-9 16.9-18.2 9-10 18.2-19.8l1.7-1.9 8.5-8.8a119 119 0 0 0 6.8-7.2 255 255 0 0 1 14.3-15l17-17 2.1-2.2q6.2-6.2 13.4-11.6c7.8-6 13.8-14.5 19.8-22.2q4.6-6 9.7-11.8 6.3-7.5 12.2-15 5.2-6.8 10.8-13.5l12-15q6.7-8.7 13.6-17 5.3-6.4 10.3-13l14.4-17.7 10.6-13.3q6.2-7.9 12.5-15.5Q-25 26-18 17C-4.8.1-4.8.1 0 0m-149.2 202.8a44 44 0 0 1-5.6 5.5 260 260 0 0 0-16 15.3l-40.9 40.8-27.6 27.6-2.5 2.4-2.2 2.3-1.9 1.9c-1.6 1.5-1.6 1.5-1.3 3.6 8.4 1.4 8.4 1.4 17 1 1.7-2.1 1.7-2.1 3-5q1.4-1.8 3.2-3.3 3.7-3.6 7-7.4 5.8-6.6 12-12.7l2.4-2.4 17-17 2.1-2.1q6-6 12.3-11.4 4.7-4.3 9.3-8.9l2-2 16.3-16.4c8.3-7.9 8.3-7.9 14.3-17.4-8.4-.9-14.4-1.5-20 5.6m29.3.3-2.1 2q-5.9 5.5-11.5 11.2l-2.7 2.7-42.4 42.4-28.8 28.7-2.5 2.5c-4.3 4.3-8 8.5-11.3 13.6l7 3.7c3.6 1.6 3.6 1.6 10 3.3l107-107c-3-2-5.6-3-9-4.1l-3.1-1.1c-4.8-1.3-7-1.2-10.6 2.1m217.2 3.4-1.7 1.8Q92 212 88 215.4q-6.5 5.8-12.8 11.8l-2.2 2q-5 4.7-9.8 9.6-3.5 3.5-7.4 6.8-6.5 5.8-12.5 12l-2.3 2.2-5.2 5.4 1 2 2.7-2.4 17.8-15.4c24.6-19.6 24.6-19.6 43.5-44.2-2.1-.2-2.1-.2-3.5 1.3m-190 9.3-1.6 1.6q-13.4 12.9-26.2 26l-7.8 7.8-66 66a47 47 0 0 0 9 7.4l2.6 1.6c2.3 1.2 2.3 1.2 4.4.5q4-3 7.3-6.7 4.4-4.7 9.4-9 6.9-6 13.2-12.6l2.6-2.6 7-6.9 7.2-7.2 61.4-61.5q-3.6-3.6-8-6.2l-2.6-1.6c-5.5-2.7-8-.3-11.8 3.4m16.4 24.4-16.4 16.5-1.6 1.7q-4.1 4-8.5 7.8c-6.6 5.7-12.6 12-18.8 18.2l-15 15-11 11-21.7 21.8c1.3 3.8 2.8 4.5 6.1 6.7l2.8 1.9 2.2 1.4a27 27 0 0 0 9-6.9l1.6-1.5 4.8-5 46.5-45.8q6.7-6 12.9-12.6l11-11 8.2-8.2 16-16a53 53 0 0 0-11-9c-5.8 0-13 10-17.1 14m32.3 2.1-1.8 1.9-2 2-2.3 2.3-2.2 2.3-7.3 7.3-4.8 4.9a398 398 0 0 0-18.3 19.4l-6.1 6.4-2.5 2.4-5 4.8q-7.5 7.6-14 16.2c2.8 2.8 4.8 2.4 8.6 2.5 11-.2 17-2.7 24.7-10.6l7.5-7.9 10-10.4 10.3-10.7 20-21a36 36 0 0 0-5.4-8.1l-1.8-2.1c-2.5-2.3-4.5-3.6-7.6-1.6m16.2 24.1-30 29.5-17.3 17.2-1.6 1.5c-1.7 1.7-1.7 1.7-3.5 4.6 0 3.7 0 3.7 1 7q.3 7.5-1 15c6.2-4.3 11.4-9.3 16.7-14.7q4.2-4.5 8.9-8.4 7.1-6.5 13.9-13.3l2.6-2.7 8.4-8.4 5.6-5.6 13.9-14c-1.7-3.3-3.5-5.8-6-8.7l-2.2-2.4c-4-3.9-6.3.3-9.4 3.4m24.6 16.8c-8 5.5-14.6 12.3-21.4 19.1l-39.1 39.2-1.6 1.6c-4.9 4.6-4.9 4.6-7.4 10.6-.5 2.5-.5 2.5-2.1 4-2.5 1.5-2.5 1.5-5.8 2.8-6.8 3.4-12 9.5-17.2 15l-11.5 11.7a36 36 0 0 0 7.3 10.4c1.7 2 1.7 2 4.8 1.6 2.2-2.3 2.2-2.3 4.3-5.2a103 103 0 0 1 12.7-13.9l1.7-1.6c6-6 6-6 11.6-12.2q6.3-7.1 13.2-13.6 5.6-5.5 10.6-11.5 4.6-4.9 9.4-9.6 5.2-5.1 9.9-10.6 2.4-2.8 5-5.3 11.6-11.2 20.6-24.5c0-2.6 0-2.6-1-5-2-1.7-2-1.7-4-3m16 28-77.5 77.3-2.3 2.4c-8.1 7-8.1 7-12.3 15.8l1 2.5 3 7c3.3-1.4 5.5-3.2 8-5.7l2.3-2.3 2.5-2.5 2.6-2.7 7.2-7.2 7.6-7.5 63.9-64.1-1.4-4.3-.7-2.4c-1-2.4-2.3-4.2-4-6.3m-276 15c-1.5 2.6-1.5 2.6-2 5 3.2-1.4 5-3 7.2-5.6l1.6-2 1.1-1.4c-3.4 0-5.3 2-8 4m142-4a64 64 0 0 0-6.3 5.8l-1.8 1.8-9.5 9.7-9.4 9.7 4.4 5.2q3 3.2 6.6 5.8c3-1.4 5-2.9 7.4-5.2l1.8-1.9 2-2 1.9-1.9c4.8-4.8 4.8-4.8 6.2-11.4v-2.5l.2-2.7.1-2.8.3-6.6c-1.8-.7-1.8-.7-4-1m-130 10-2 1.8-6.3 5.8-2 1.8c-3.5 3.3-3.5 3.3-5 7.6q.7 6 3.3 11.5l1.1 2.6.9 1.9q7.4-6.3 14.2-13l2-2 14.4-14.4 2-1.9c3.5-3.2 3.5-3.2 4.3-7.7l-4.6-1.5-2.6-.9c-9.3-2.2-13.2 2.4-19.7 8.4m35 1.5-2 2.1-2.4 2.4-2.6 2.6-2.7 2.7-19.5 19.6-2.6 2.6-2.4 2.5-2.1 2.1c-2 2-2 2-3.7 4.9.3 4.5 2.4 8 4.5 11.8l1 1.8 2.4 4.4c4.3-1.7 7.2-4.9 10.3-8l1.8-1.9a1459 1459 0 0 0 25.4-26.4q4.4-4.7 9-9.2l2-2 4.6-4.5a27 27 0 0 0-9.6-6.2l-3.4-1.6c-4.2-1.7-4.2-1.7-8 .3m232.8 6-1.7 1.6Q0 355.7-14.6 370.5l-15 15.2q-6.7 6.7-13.8 13a330 330 0 0 0-17.3 16c-7.4 6.2-7.4 6.2-11 14.6a36 36 0 0 0 2.5 7.9l1 4c3.2-1.4 5.4-3.1 7.9-5.6l2.3-2.3 2.5-2.4 2.6-2.7 8.8-8.5 1.5-1.5 31.8-31.5 28.5-28.1 2.5-2.5c4.2-4.1 4.2-4.1 5.9-9.6a42 42 0 0 0-2-9.6l-.4-1.7c-3.2 0-4.9 2.4-7.1 4.5m-208.4 11.4-2.7 2.5q-6.5 6.1-12.8 12.5l-2.8 2.7-13 13-7 7-2.7 2.6-2.4 2.5-2.2 2.2q-2.8 3.3-4.8 7 2.6 3.6 5.3 7l1.5 2.1 1.5 2 1.3 1.7c1.4 1.6 1.4 1.6 4.3 1.3a87 87 0 0 0 7.3-7l19.4-19.4 10.2-10.4 20.2-20.2c-1.9-4-4.1-6-7.5-8.8l-3-2.4c-4.6-3.2-6.3-1.4-10.1 2m78-.1-5 5.4-2.5 2.8-7 8c1.6 3.7 3.7 5.7 6.7 8.2l2.5 2.2 1.8 1.6c3.9-1.6 6.3-4 9.2-7l1.5-1.4 13.3-13.3c2.2-2.2 2.2-2.2 3-5.3a14 14 0 0 0-8.8-2c-3.1 0-5.5-.1-8.7-.8-3.5-.6-3.5-.6-6 1.6m136 15.6-2.4 2.2-2.6 2.5-2.7 2.7a3980 3980 0 0 0-41.6 40.5l-22.2 21.7c-12 10.4-12 10.4-18 24.3q.1 6.6 2 12.7 12-10 22.1-21.9 4.4-4.6 8.9-9 5-5 9.4-10.2 3.5-4 7.5-7.7l7.3-8 9-9.9 2-2q5.4-6 11.2-11.6c6.8-6.5 14.3-13.8 14.7-23.9v-5.8c-2 0-3.4 2.1-4.7 3.4m-185.4-1.4c-1.6 1.5-1.6 1.5-3.2 3.5q-5.5 6.4-11.5 12.2l-2.1 2.1-9 9-6.6 6.5-2 2q-5.8 5.6-11 11.9-4 4.3-8 8.3l-1.7 1.6-4 3.9a24 24 0 0 0 6.2 8.2l2.2 2.2 1.7 1.6c4-1.6 6.8-4.6 9.8-7.7l1.8-1.7 20-20.1 10.6-10.6 20.8-21-2.4-2.8-1.4-1.6a44 44 0 0 0-5-4.9l-1.7-1.5c-1.5-1.3-1.5-1.3-3.6-1.1m17 22.9-1.8 1.7-22.6 22.7-11 11-21.7 21.7c1.5 3 3 5.2 5.4 7.6l1.7 1.8c2.3 2 2.3 2 7 3.6l60-60-6-7-4.9-5.7q-.4-.7-1.2-1.3c-2.1 0-3.5 2.4-5 3.9m16.2 25.2-2.1 2q-14.3 13.7-28.2 27.9l-7.4 7.4-14.6 14.6c3.2 3.2 6.1 5.9 9.9 8.3l2.4 1.6 1.8 1q7.2-6 14-12.8l1.7-1.7q4.3-4.4 8.3-9a182 182 0 0 1 12.7-13l13.5-13.2 1.8-1.7c1.8-1.8 1.8-1.8 4-4.5-.5-3.7-2.2-5.9-4.4-8.8l-1.9-2.4-1.7-1.8c-4.6 0-6.7 3-9.8 6m18 20-2.1 2-6.2 5.9c-.7.8-.7.8-1.6 1.5q-6 5.9-11.4 12-7.4 8.3-15.4 16l-10.6 10.5c5.9 4.6 5.9 4.6 13 5.8 3.7-1 5.2-2.4 8-5.1l2.8-2.8 20.8-21 7.9-8 1.5-1.6c9-7.6 9-7.6 14-17.3l-1-2-1.5-3.3-1.5-2.7c-7.1 0-11.8 5.4-16.7 10m20.1 14.3-1.4 1.4-14.6 14.6-23 23-2.5 2.5c-2 1.9-2 1.9-1.8 4q2.4 1.2 5 2.1l2.9 1.2c4 1 6 .8 10-.2q4.4-3.1 8.2-7l2.3-2.2 4.7-4.6q3.5-3.6 7.2-7c8.3-7.4 8.3-7.4 12.5-17.3-.2-3.5-.8-6.5-1.8-10l-1-5c-3.3 0-4.5 2.2-6.7 4.5m2.7 34.6-5.4 5.2-1.6 1.5a24 24 0 0 0-6 8.3 25 25 0 0 0 12.9-9.6c1.4-2.5 1.4-2.5 0-5.4" style="fill:#192743" transform="translate(293.3 4.8)"/><path d="M0 0v5h-3c-1.8 1.3-1.8 1.3-3.5 3.1l-2.1 2.1-2.3 2.4-59.9 59.9-7.7 7.8-2.3 2.2Q-88 90-94 98l-3-1a236 236 0 0 1 15-16q1.2-1.4 2.6-2.7l7.1-7.2 7.6-7.5L-9.3 8.2l2.5-2.6 2.3-2.2 2-2C-1 0-1 0 0 0" style="fill:#192743" transform="translate(308 313)"/><path d="M0 0c0 3 0 3-1.3 4.6L-3 6.4l-2 2-2.2 2.1L-33 36l-2-1C-14.8 13.3-14.8 13.3-5.8 5.5Q-2.8 3 0 0" style="fill:#192743" transform="translate(349 233)"/><path d="m0 0 3 1Q-2.5 6.8-8.6 12c-6.8 6-13 12.6-19.4 19 0-3 0-3 2.6-6l3.5-3.4 2-1.9z" style="fill:#192743" transform="translate(147 202)"/><path d="m0 0 7.9-.1H10L16 0l2 2-2.2 2Q8.2 10.4 1.6 18.1-2 22.2-6 26l-2-1 2.4-2.3C1.4 15.7 8 8.9 14 1H0z" style="fill:#192743" transform="translate(150 201)"/><path d="M0 0h1l1 14 7-7c0 3 0 3-2 5.3l-2.4 2.4L2 17C0 19 0 19-1 19z" style="fill:#192743" transform="translate(227 463)"/><path d="M0 0c0 3 0 3-1.6 4.9L-3.7 7-6 9.3-17 20c0-4.6 2.9-6.8 6-10q3-2.9 6.2-5.4z" style="fill:#192743" transform="translate(219 378)"/><path d="m0 0 2.1.8-1.6.7c-3.3 1.8-5.9 4.4-8.6 7L-9.8 10l-4 3.8c0-4.2 2.3-5.9 5.1-8.7l1.5-1.6C-3.5-.2-3.5-.2 0 0" style="fill:#192743" transform="translate(207.9 214.2)"/><path d="m0 0-9 9-2-1 6-6-5 1C-6.7-.7-5-1.2 0 0" style="fill:#192743" transform="translate(42 326)"/><path d="m0 0 3 1-8 8-3-1z" style="fill:#192743" transform="translate(147 202)"/><path d="M0 0c0 4.4-2.1 5.8-5 9l-3-2z" style="fill:#192743" transform="translate(400 202)"/><path d="M0 0c0 4.4-2 6-5 9-2.2.7-2.2.7-4 1l2.8-3.3 1.6-1.9z" style="fill:#192743" transform="translate(143 186)"/></svg>