<svg xmlns="http://www.w3.org/2000/svg" style="display:block" viewBox="0 0 443 601"><path d="M0 0h3l15.5-.1c21.6-.1 54-.3 71.2 15 6.1 7.2 9.1 17 9.3 26.2.2 3.8.8 7 2.8 10.1 6.3 4.8 14.6 6.5 22 8.6A955 955 0 0 1 169 75.6l2.2 1q13 5.1 25.8 11l2.5 1.1c8.4 4 14.6 9.3 18.1 18a201 201 0 0 1 9.8 39.8 684 684 0 0 1 4.8 44.3 2880 2880 0 0 1 5.7 74.5q4.4 67.8 4.5 135.7v3.9l.2 44.9v2l.4 68.9.1 37.8v6.7c.4 17.7.4 17.7-3.7 22.3q-3.8 3.3-8.6 5.7l-2 1.1c-11.6 5.9-30.5 4-42.7 1a44 44 0 0 1-16.3-9.1V482.8l.1-89.4q.1-38.6-.5-77v-3q-.7-28.5-2.5-56.9l-.7-12.4-1.4-23.9a4206 4206 0 0 0-2.6 157.6l-.5 75.9v2.3l-1.2 127.3v3.8l-.2 3.5v3.1l-.5 2.5c-3 2-3.7 2.2-7.1 2.1l-3.9-.1c-1.9-4-2.2-7.4-2.2-11.9v-11.7c.1-24.8 1-49.5 1.7-74.3l.6-22.3 5.8-194.3.6-19 1.7-59.5.1-10.5.1-4.8c0-12.4 2.1-22.3 8.3-33.2l4-8.2q11.6-24 26.3-46.3c-9.4-5.2-19.1-8.7-29.2-12.2l-14-5-2.8-1a685 685 0 0 1-27-10.3 404 404 0 0 0-18.3-6.9c-3-.7-4.7-.6-7.7.4q-2.7 2.9-5 5.9l-3 3.6-1.5 1.8c-8 9.6-19.6 21-31.5 25.7h-6a141 141 0 0 0-1.2 50l3.8 34.9 3 28.9c11.3 104.1 11.3 104.1 14.3 134.3l1.5 15 .3 2.3c.8 8.7.2 16.2-4.1 23.8l-1 2a342 342 0 0 1-15.7 24.4l-4.6 7-1 1.6-2.8 3.6c-5.2 6.7-5.3 12.5-5.2 20.8v15l-.1 11.4v46.3l-.2 50.7c-2 1-2 1-11 1v-64h-6v63h-12l.1-5a3821 3821 0 0 0 .2-72.4 1046 1046 0 0 0 .1-32.8c.5-22.9-5.1-36.7-19-54.8A153 153 0 0 1-21 395.6c-4-6.7-5.5-11.6-5.5-19.4v-2.8c.2-15 2.1-30 3.7-45l1.5-13.6 5.8-54.8 1.5-14.2 7.6-69.6 3-27c1.6-13.5 3.1-26 0-39.4q-1-5.2-.8-10.6l-1.6 1.2c-3 2-5.8 3.7-9.5 3.9-7.5-1.9-12.9-8.1-18.1-13.4l-5.2-5a122 122 0 0 1-17.6-20.7c-6.5.6-12.4 2.6-18.6 4.8l-3.4 1.2c-24 8.5-48.3 18.5-71 30q2 6.2 5 11.8l1.7 3.4 1.8 3.5 13.8 26.2q3 5.8 6.3 11.2c8.8 14.8 9.9 30.4 11.1 47.2l1 12 2.7 33a3034 3034 0 0 1 4.1 61.2q1.6 26.6 2 53.2l.1 3.4q.8 49.1 1 98.2v18.3c.5 73.8.5 73.8.4 110.4a18 18 0 0 1-11 2c-2-2-1.4-6.5-1.5-9.4l-.1-2.8q-.7-20.8-1-41.6l-.2-12.6-1.3-78.2v-2.9a15839 15839 0 0 0-5.4-213v-3.4l-.2-3.1v-2.7c-.2-2.5-.2-2.5-1.3-5.3a2276 2276 0 0 0-4.2 77.4q-1.3 40.1-.7 80.3l.1 34.1v2.2l.1 24.6v2.2l.5 97.4.2 34.6v3c0 3.7 0 6.2-2.7 9.1q-5.6 4.1-12 7l-2.6 1.1a71 71 0 0 1-41.3 1.7c-5.2-2.8-9-5.8-12.4-10.7-4.3-14-3.1-30.7-3.1-45.4V452c-.2-99 1.4-197.8 31-353.9 16.8-16 40.8-22.2 62.2-29.6l20.1-7c14.6-3.7 14.6-3.7 26-12q1-3.2 1.5-6.6l1.1-4.9.6-2.4a50 50 0 0 1 21-29C-24.2 1.3-11.9.1 0 0m-32 17.5c-1.4 1.7-1.4 1.7-1.3 4.1 1.7 4 5 5 8.6 6.7l2.3 1 6.2 2.9 2.6 1.2a23 23 0 0 0 12.2 1.4 240 240 0 0 1 27.8-.7h6.2q5.2 0 10.3.5c8.3.9 13.3.7 20.2-4.1l2.2-1.4c3.1-2 6-4 8.5-6.9.4-2.5.4-2.5-1-5-12-8.3-30-9.1-44.2-9.2h-2.8l-15-.1c-15.4 0-30 .1-42.8 9.6m-8.2 14.7a38 38 0 0 0-4.2 15.7l-.2 3-.2 3c2 10.5 10.6 17.8 18 25l10.6 10.3c3.4-1.5 5-3 7.2-5.9l1.8-2.4 2-2.7 2.4-3c6.7-7.7 6.7-7.7 9.5-17-1.2-2.8-2.6-3.4-5.2-5q-1.5-.7-2.8-1.5l-13.7-7a249 249 0 0 1-21.1-11.4c-2-1.3-2-1.3-4-1.1m114.5 3.3q-11.5 5.8-23.1 11l-3.5 1.7q-6.8 3.1-13.9 6 5.4 10 12 19.2l1.9 2.6q4.8 6.9 10.1 13.2c5.6-2.9 9.7-6.2 14.1-10.7l1.9-1.9A37 37 0 0 0 86 45.7c-.2-5-1.2-9-3.3-13.5-3.1 0-5.7 1.8-8.5 3.3m-58.5 8.7a10 10 0 0 0 4 3c3.7-.2 3.7-.2 7-1-1.7-2.2-1.7-2.2-4.1-2.2h-2.5l-2.5.1zm5 15-3.2 4.5-1.8 2.5q-3.3 5.3-6 11l21-2-3.8-6.9-1.2-2.1a30 30 0 0 0-5-7M9.3 92.4c-4 7.6-1.7 17 .5 24.8 1.9 1.8 4.4 1.1 6.8 1.1h4.6q6.9 0 13.6-1.1c1.6-8.7 2.3-17.1 2-26-5.6-3.5-5.6-3.5-12-5l-2-.4c-6.4-.7-9.5 1.6-13.5 6.6m195.5 20.8-6.4 10.3q-10.9 18-20 36.8l-1.2 2.6-3.4 7.3-1 2c-1.9 4.7-2.2 9.4-2.2 14.5v2.3c.2 12 1.2 24 2 36l.7 10.7 3.3 48 3.2 47.5.2 3 .5 7.6.3 4q1.2 19.6 1.6 39.3v2.7q.7 29 .5 58v132.4l2.6.8 3.5 1 3.5 1.2 6.4 2a37 37 0 0 0 28-1 25083 25083 0 0 0-1.5-296.5v-3a688 688 0 0 0-2.8-51.2 837 837 0 0 0-16.8-118.3zm-365 1a379 379 0 0 0-8.4 41.7 1230 1230 0 0 0-15.2 165.6c-.7 37-.5 73.8-.5 110.8v64.5a2765 2765 0 0 0 .7 71v2.3c.2 4.7 1 8.7 2.4 13.1 12.4 3.7 27 2.2 39-2l3-2q.5-4.1.4-8.3v-11.5l.1-41.6.2-113.6c0-36.7 1-73.2 4-109.7l.3-3c2-26.5 4.8-52.9 7.6-79.2q0-2 .4-4l1.6-14.4.4-3.7.3-2.1c.4-6.8-2-11.7-5.2-17.6l-1.5-3.1-5-9.6-3.1-6.4-15.1-28.7-1.3-2.3c-1.9-3.7-1.9-3.7-5-6.2m170 21v11c8.7-2.4 16.2-6.7 24-11v-1c-12.1-1.6-12.1-1.6-24 1m17.6 16.3L24 153l-3.3 1.6-3.4 1.5c-5.7 2.4-5.7 2.4-10.6 6.1q-1.2 4-1 8.3v13.7q11.2-3.1 21.7-8.2l3-1.4 7.3-3.4q.3-8.4-1-16.6l-.5-3.1-.5-2.3c-3.4 0-5.3.9-8.4 2.3m-3.5 38-9.6 4.4-3.4 1.5c-3.9 2.3-7.3 4.6-8.8 9l-.2 2.1-.2 2.4-.2 2.4-.2 2.5q-.5 4.6-.5 9.4A201 201 0 0 0 28 212.4l6.3-2.8 2-.8c2.8-1.3 4.3-2 5.5-5a42 42 0 0 0-.6-9l-.3-2.4-.3-2.4-.8-5.8c-5.9 0-10.7 2.8-16 5.3m9.6 32.3-1.9.9-20.8 9.5-3.3 1.6C2 236.4 2 236.4-1.8 241q-.6 5.5-.5 11v2l.1 5.1a795 795 0 0 0 33.7-16.5l1.8-1c6.1-2.7 6.1-2.7 11.5-6.5q0-4-.4-8l-.2-2.4q0-2.7-.4-5.6c-4.3 0-6.4.9-10.3 2.6M.8 273.2l-2.7 1.5c-2.6 1.4-2.6 1.4-3.5 4.6q-1.2 6.4-1.4 12.8l-.1 2.4-.3 5.7a454 454 0 0 0 37.7-16l7.3-3.2c5.7-2.6 5.7-2.6 11-5.8.7-2.5.7-2.5.5-5.3l-.1-3.2q-.9-8.8-2.4-17.5c-13.3 0-34.5 17.3-46 24M44 290.7l-2.4 1-2.5 1.2-2.7 1.2-13.9 6c-16.9 6.4-16.9 6.4-31.7 16.1a107 107 0 0 0-1.3 9.8q-.8 6.5-.7 13.2 19.9-8.3 39.4-17.3l2.3-1 6.6-3.1 2-1q7-3 13.7-6.6l-.4-8.2-.1-2.4-.1-2.3-.2-2q-.3-3.1-1.2-6.1c-3 0-4.2.4-6.8 1.5m4 34-2.3 1-2.5 1.2-37.8 17.8-2.6 1.2-4.9 2.3c-7.2 3-7.2 3-11.8 9l-.2 2.2-.3 2.4-.4 5c-.3 3.5-.5 6 .6 9.4 4.7-.7 8.7-2.5 12.9-4.4l2.3-1 17.8-8q1.2-.7 2.6-1.2A877 877 0 0 1 48 350l3-1.4 2.8-1.1c2-1.1 2-1.1 2.8-3.2q.2-3.2-.2-6.4l-.3-2.4q0-1.3-.3-2.5 0-1.3-.3-2.6l-.8-6.2c-3.4-1.1-3.7-1-6.8.5m.8 37-1.8.8-14.3 6.6-2.2 1q-7.8 3.7-15.8 7l-2.2 1-8.6 3.6-6 2.5-3.4 1.5c-2.8 1.6-3.6 2.5-4.7 5.5l7.5 10.8 1.2 1.8c1.7 1.8 2.9 2 5.3 2.4 2-.5 2-.5 4.1-1.5l2.5-1.1 2.6-1.2 2.7-1.3 27.7-12.8 10.3-4.7 5.1-2.4v-21c-4.7-1.2-5.7-.5-10 1.5m-9 40-1.9 1a585 585 0 0 0-29 14.5c.7 3.6 2 5.6 4.3 8.5L15 428l1.8 2.2 2 2.3c2 2 2 2 4.5 1.5 3-1 4-2 5.8-4.6l1.7-2.3 1.8-2.6 1.8-2.6q7.7-10.6 14.4-21.7c-4-1.3-5.3-.2-9 1.6m-20 43.5v53h6v-53z" style="fill:#192743" transform="translate(199.2 1.8)"/><path d="M0 0c3.4.3 5.6.7 8.4 2.7a10 10 0 0 1 2.2 5C9.7 12.6 7.1 16.2 4 20l-2 1q1.7-4.5 4.2-8.6c2-3 2-3 2-5.6-2-3-5-4.2-8.2-5.8z" style="fill:#192743" transform="translate(197 53)"/><path d="M0 0c0 3.3-.5 4-2.4 6.6l-1.3 1.9c-2 2.2-3.2 2.5-6.1 3-3.6-.5-4-.9-6-3.5L-18 5l1-2 1.1 1.3C-12.6 8-12.6 8-8 9.3L-6 9l.8-1.7Q-3 3.3 0 0" style="fill:#192743" transform="translate(231 426)"/><path d="M0 0q10.9 2 21 6l1 2-5.1-1.4-3-.8C11 5 11 5 7.5 3.8 4 2.7 1.4 3.3-2 5z" style="fill:#192743" transform="translate(296 65)"/><path d="M0 0h20l-4 3c-1.9-.3-1.9-.3-4-1H1z" style="fill:#192743" transform="translate(212 45)"/><path d="M0 0h1v14l5-1c-3.6 3-3.6 3-7 3z" style="fill:#192743" transform="translate(204 172)"/><path d="M0 0h3v1l-5 1-1 11 2 1-4 1q0-3.5.4-6.9l.2-3.9C-4 .1-4 .1 0 0" style="fill:#192743" transform="translate(212 135)"/><path d="M0 0h1L.9 2.8v3.6L.6 10l.3 3 3 2-5 2z" style="fill:#192743" transform="translate(184 364)"/><path d="M0 0h1l1 11 4-1c-2.4 2.8-3.2 3-7 4z" style="fill:#192743" transform="translate(196 249)"/><path d="M0 0c4.8.4 7 1.3 10 5L9 7 4.5 4 2 2.5 0 1z" style="fill:#192743" transform="translate(197 53)"/><path d="m0 0-3 1.7c-3.2 2-3.2 2-3.9 5L-7 9h-1c-.3-3.3-.3-3.3 0-7 3-2.7 4-3.3 8-2" style="fill:#192743" transform="translate(193 353)"/><path d="m0 0 3.4 2.9 2 1.6A8 8 0 0 1 8 8c-3.2-.3-4-1-6.2-3.4C0 2 0 2 0 0" style="fill:#192743" transform="translate(213 429)"/></svg>